<svg xmlns="http://www.w3.org/2000/svg" viewBox="0 0 64 90" width="640" height="900"><g stroke="#000" fill="none" stroke-linecap="round" stroke-linejoin="round" stroke-width="1.6"><path d="M32 4c0 6-2 9-5 12M32 9c8-6 21-5 26 3-8 5-19 3-26-3z"/><circle cx="22" cy="26" r="6.5"/><circle cx="35" cy="24" r="6.5"/><circle cx="46" cy="29" r="6.5"/><circle cx="29" cy="37" r="6.5"/><circle cx="42" cy="39" r="6.5"/><circle cx="17" cy="39" r="6.5"/><circle cx="24" cy="50" r="6.5"/><circle cx="37" cy="50" r="6.5"/><circle cx="30" cy="62" r="6.5"/><circle cx="32" cy="74" r="5.5"/><path d="M50 12c6 4 8 10 4 16"/></g></svg>